<svg xmlns="http://www.w3.org/2000/svg" width="1200" height="630" viewBox="0 0 1200 630" role="img" aria-labelledby="title desc">
  <title id="title">PurrSafe — Know what is safe. Remember what matters.</title>
  <desc id="desc">A teal and coral card introducing PurrSafe, a private cat care memory app.</desc>
  <rect width="1200" height="630" fill="#edf6f9"/>
  <circle cx="1050" cy="70" r="220" fill="#d5eceb"/>
  <circle cx="1110" cy="570" r="180" fill="#f7d8cb"/>
  <rect x="88" y="90" width="82" height="82" rx="26" fill="#006d77"/>
  <path d="M113 137c0-17 11-29 25-29 10 0 18 5 23 14 5-9 13-14 23-14 14 0 25 12 25 29 0 27-25 46-48 60-23-14-48-33-48-60Z" fill="#fff" transform="translate(-15 -16) scale(.7)"/>
  <text x="88" y="275" fill="#173f43" font-family="Arial, sans-serif" font-size="72" font-weight="700">Know what is safe.</text>
  <text x="88" y="360" fill="#006d77" font-family="Arial, sans-serif" font-size="72" font-weight="700">Remember what matters.</text>
  <text x="92" y="445" fill="#567477" font-family="Arial, sans-serif" font-size="30">Private cat care memories, in one calm place.</text>
  <rect x="92" y="500" width="225" height="58" rx="29" fill="#e29578"/>
  <text x="136" y="538" fill="#4c281f" font-family="Arial, sans-serif" font-size="24" font-weight="700">Join private beta</text>
</svg>
